<svg width="78" height="78" viewBox="0 0 78 78" fill="none" xmlns="http://www.w3.org/2000/svg">
<g clip-path="url(#clip0_53_311)">
<path d="M70.0483 13.0004C69.753 12.9699 69.4553 12.9699 69.16 13.0004H8.4933C8.10448 13.0064 7.71824 13.0647 7.34497 13.1737L38.6533 44.352L70.0483 13.0004Z" fill="url(#paint0_linear_53_311)"/>
<path d="M73.255 16.0117L41.7083 47.4284C40.8964 48.2355 39.7981 48.6885 38.6533 48.6885C37.5085 48.6885 36.4102 48.2355 35.5983 47.4284L4.33331 16.2501C4.23719 16.6033 4.18623 16.9673 4.18164 17.3334V60.6667C4.18164 61.816 4.63819 62.9182 5.45084 63.7309C6.2635 64.5435 7.3657 65.0001 8.51497 65.0001H69.1816C70.3309 65.0001 71.4331 64.5435 72.2458 63.7309C73.0584 62.9182 73.515 61.816 73.515 60.6667V17.3334C73.4977 16.882 73.41 16.436 73.255 16.0117ZM11.4833 60.6667H8.47164V57.5684L24.2233 41.9467L27.2783 45.0017L11.4833 60.6667ZM69.1383 60.6667H66.105L50.31 45.0017L53.365 41.9467L69.1166 57.5684L69.1383 60.6667Z" fill="url(#paint1_linear_53_311)"/>
</g>
<defs>
<linearGradient id="paint0_linear_53_311" x1="38.6966" y1="12.9775" x2="38.6966" y2="44.352" gradientUnits="userSpaceOnUse">
<stop stop-color="#8D0432"/>
<stop offset="1" stop-color="#BD0040"/>
</linearGradient>
<linearGradient id="paint1_linear_53_311" x1="38.8483" y1="16.0117" x2="38.8483" y2="65.0001" gradientUnits="userSpaceOnUse">
<stop stop-color="#8D0432"/>
<stop offset="1" stop-color="#BD0040"/>
</linearGradient>
<clipPath id="clip0_53_311">
<rect width="78" height="78" fill="white"/>
</clipPath>
</defs>
</svg>
