<svg width="46" height="35" viewBox="0 0 46 35" fill="none" xmlns="http://www.w3.org/2000/svg">
<path d="M43.582 0.0151017C43.3865 -0.00503391 43.1896 -0.00503391 42.9942 0.0151017H2.85284C2.59556 0.0190659 2.34 0.0576419 2.09302 0.129791L22.8088 20.7596L43.582 0.0151017Z" fill="url(#paint0_linear_2001_256)"/>
<path d="M45.7038 2.00781L24.8303 22.7953C24.2931 23.3293 23.5664 23.6291 22.8089 23.6291C22.0514 23.6291 21.3247 23.3293 20.7875 22.7953L0.100353 2.16551C0.0367572 2.39925 0.00303739 2.6401 0 2.88232V31.5547C0 32.3151 0.302083 33.0444 0.839795 33.5821C1.37751 34.1199 2.1068 34.4219 2.86724 34.4219H43.0086C43.769 34.4219 44.4983 34.1199 45.036 33.5821C45.5737 33.0444 45.8758 32.3151 45.8758 31.5547V2.88232C45.8644 2.58363 45.8064 2.28857 45.7038 2.00781ZM4.8313 31.5547H2.83857V29.5046L13.261 19.1682L15.2824 21.1896L4.8313 31.5547ZM42.9799 31.5547H40.9728L30.5217 21.1896L32.5431 19.1682L42.9656 29.5046L42.9799 31.5547Z" fill="url(#paint1_linear_2001_256)"/>
<defs>
<linearGradient id="paint0_linear_2001_256" x1="22.8375" y1="0" x2="22.8375" y2="20.7596" gradientUnits="userSpaceOnUse">
<stop stop-color="#8D0432"/>
<stop offset="1" stop-color="#BD0040"/>
</linearGradient>
<linearGradient id="paint1_linear_2001_256" x1="22.9379" y1="2.00781" x2="22.9379" y2="34.4219" gradientUnits="userSpaceOnUse">
<stop stop-color="#8D0432"/>
<stop offset="1" stop-color="#BD0040"/>
</linearGradient>
</defs>
</svg>
