<svg width="59" height="59" viewBox="0 0 59 59" fill="none" xmlns="http://www.w3.org/2000/svg">
<g clip-path="url(#clip0_53_311)">
<path d="M17.8433 26.8783C20.9633 33.01 25.99 38.015 32.1217 41.1567L36.8883 36.39C37.4733 35.805 38.34 35.61 39.0983 35.87C41.525 36.6717 44.1467 37.105 46.8333 37.105C48.025 37.105 49 38.08 49 39.2717V46.8333C49 48.025 48.025 49 46.8333 49C26.4883 49 10 32.5117 10 12.1667C10 10.975 10.975 10 12.1667 10H19.75C20.9417 10 21.9167 10.975 21.9167 12.1667C21.9167 14.875 22.35 17.475 23.1517 19.9017C23.39 20.66 23.2167 21.505 22.61 22.1117L17.8433 26.8783Z" fill="url(#paint0_linear_53_311)"/>
</g>
<defs>
<linearGradient id="paint0_linear_53_311" x1="29.5" y1="10" x2="29.5" y2="49" gradientUnits="userSpaceOnUse">
<stop stop-color="#8D0432"/>
<stop offset="1" stop-color="#BD0040"/>
</linearGradient>
<clipPath id="clip0_53_311">
<rect width="58.5276" height="58.5276" fill="white"/>
</clipPath>
</defs>
</svg>
