<svg width="37" height="37" viewBox="0 0 37 37" fill="none" xmlns="http://www.w3.org/2000/svg">
<path d="M7.28554 15.678C10.1837 21.3736 14.8528 26.0227 20.5484 28.9409L24.9761 24.5132C25.5195 23.9698 26.3245 23.7887 27.029 24.0302C29.283 24.7749 31.7183 25.1774 34.2139 25.1774C35.3208 25.1774 36.2264 26.083 36.2264 27.19V34.2139C36.2264 35.3208 35.3208 36.2264 34.2139 36.2264C15.3157 36.2264 0 20.9107 0 2.01258C0 0.905661 0.905661 0 2.01258 0H9.05661C10.1635 0 11.0692 0.905661 11.0692 2.01258C11.0692 4.52831 11.4717 6.9434 12.2164 9.19749C12.4377 9.90189 12.2767 10.6868 11.7132 11.2503L7.28554 15.678Z" fill="url(#paint0_linear_456_661)"/>
<defs>
<linearGradient id="paint0_linear_456_661" x1="18.1132" y1="0" x2="18.1132" y2="36.2264" gradientUnits="userSpaceOnUse">
<stop stop-color="#8D0432"/>
<stop offset="1" stop-color="#BD0040"/>
</linearGradient>
</defs>
</svg>
