<svg width="55" height="55" viewBox="0 0 55 55" fill="none" xmlns="http://www.w3.org/2000/svg">
<path d="M11.0108 23.6946C15.3908 32.3025 22.4475 39.3287 31.0554 43.7392L37.7471 37.0475C38.5683 36.2263 39.785 35.9525 40.8496 36.3175C44.2563 37.4429 47.9367 38.0513 51.7083 38.0513C53.3813 38.0513 54.75 39.42 54.75 41.0929V51.7083C54.75 53.3813 53.3813 54.75 51.7083 54.75C23.1471 54.75 0 31.6029 0 3.04167C0 1.36875 1.36875 0 3.04167 0H13.6875C15.3604 0 16.7292 1.36875 16.7292 3.04167C16.7292 6.84375 17.3375 10.4938 18.4629 13.9004C18.7975 14.965 18.5542 16.1513 17.7025 17.0029L11.0108 23.6946Z" fill="url(#paint0_linear_53_301)"/>
<defs>
<linearGradient id="paint0_linear_53_301" x1="27.375" y1="0" x2="27.375" y2="54.75" gradientUnits="userSpaceOnUse">
<stop stop-color="#8D0432"/>
<stop offset="1" stop-color="#BD0040"/>
</linearGradient>
</defs>
</svg>
