<svg width="99" height="99" viewBox="0 0 99 99" fill="none" xmlns="http://www.w3.org/2000/svg">
<rect x="7" y="7" width="84.75" height="84.75" rx="42.375" fill="url(#paint0_linear_153_330)"/>
<rect x="3.5" y="3.5" width="91.75" height="91.75" rx="45.875" stroke="#8D0432" stroke-opacity="0.15" stroke-width="7"/>
<g clip-path="url(#clip0_153_330)">
<path d="M68.4812 33.375C68.2995 33.3563 68.1163 33.3563 67.9345 33.375H30.6012C30.3619 33.3787 30.1242 33.4146 29.8945 33.4817L49.1612 52.6683L68.4812 33.375Z" fill="white"/>
<path d="M70.4549 35.2284L51.0416 54.5617C50.5419 55.0584 49.8661 55.3372 49.1616 55.3372C48.4571 55.3372 47.7812 55.0584 47.2816 54.5617L28.0416 35.3751C27.9824 35.5924 27.9511 35.8165 27.9482 36.0417V62.7084C27.9482 63.4156 28.2292 64.0939 28.7293 64.594C29.2294 65.0941 29.9077 65.3751 30.6149 65.3751H67.9482C68.6555 65.3751 69.3338 65.0941 69.8339 64.594C70.334 64.0939 70.6149 63.4156 70.6149 62.7084V36.0417C70.6043 35.7639 70.5503 35.4895 70.4549 35.2284ZM32.4416 62.7084H30.5882V60.8017L40.2816 51.1884L42.1616 53.0684L32.4416 62.7084ZM67.9216 62.7084H66.0549L56.3349 53.0684L58.2149 51.1884L67.9082 60.8017L67.9216 62.7084Z" fill="white"/>
</g>
<defs>
<linearGradient id="paint0_linear_153_330" x1="49.375" y1="7" x2="49.375" y2="91.75" gradientUnits="userSpaceOnUse">
<stop stop-color="#8D0432"/>
<stop offset="1" stop-color="#BD0040"/>
</linearGradient>
<clipPath id="clip0_153_330">
<rect width="48" height="48" fill="white" transform="translate(25.375 25.375)"/>
</clipPath>
</defs>
</svg>
