<svg width="99" height="99" viewBox="0 0 99 99" fill="none" xmlns="http://www.w3.org/2000/svg">
<rect x="7" y="7" width="84.75" height="84.75" rx="42.375" fill="url(#paint0_linear_153_328)"/>
<rect x="3.5" y="3.5" width="91.75" height="91.75" rx="45.875" stroke="#8D0432" stroke-opacity="0.15" stroke-width="7"/>
<path d="M38.0919 46.8374C41.1119 52.7725 45.9775 57.6171 51.9126 60.6581L56.5265 56.0442C57.0928 55.4779 57.9317 55.2892 58.6657 55.5408C61.0146 56.3168 63.5522 56.7363 66.1528 56.7363C67.3063 56.7363 68.25 57.68 68.25 58.8335V66.1528C68.25 67.3063 67.3063 68.25 66.1528 68.25C46.4599 68.25 30.5 52.2901 30.5 32.5972C30.5 31.4438 31.4438 30.5 32.5972 30.5H39.9375C41.091 30.5 42.0347 31.4438 42.0347 32.5972C42.0347 35.2188 42.4542 37.7354 43.2301 40.0843C43.4608 40.8183 43.2931 41.6363 42.7058 42.2235L38.0919 46.8374Z" fill="white"/>
<defs>
<linearGradient id="paint0_linear_153_328" x1="49.375" y1="7" x2="49.375" y2="91.75" gradientUnits="userSpaceOnUse">
<stop stop-color="#8D0432"/>
<stop offset="1" stop-color="#BD0040"/>
</linearGradient>
</defs>
</svg>
